<?xml version="1.0" encoding="UTF-8" standalone="no"?>
<!-- Created with Inkscape (http://www.inkscape.org/) -->

<svg
   width="6.5439401mm"
   height="6.8557024mm"
   viewBox="0 0 6.5439401 6.8557024"
   version="1.1"
   id="svg1"
   xml:space="preserve"
   xmlns:inkscape="http://www.inkscape.org/namespaces/inkscape"
   xmlns:sodipodi="http://sodipodi.sourceforge.net/DTD/sodipodi-0.dtd"
   xmlns="http://www.w3.org/2000/svg"
   xmlns:svg="http://www.w3.org/2000/svg"><sodipodi:namedview
     id="namedview1"
     pagecolor="#353535"
     bordercolor="#999999"
     borderopacity="1"
     inkscape:showpageshadow="0"
     inkscape:pageopacity="0"
     inkscape:pagecheckerboard="0"
     inkscape:deskcolor="#d1d1d1"
     inkscape:document-units="mm"
     inkscape:zoom="3.9340067"
     inkscape:cx="381.67195"
     inkscape:cy="599.6431"
     inkscape:window-width="1920"
     inkscape:window-height="1011"
     inkscape:window-x="0"
     inkscape:window-y="0"
     inkscape:window-maximized="1"
     inkscape:current-layer="layer1"><inkscape:page
       x="0"
       y="0"
       width="6.5439401"
       height="6.8557024"
       id="page2"
       margin="0"
       bleed="0" /></sodipodi:namedview><defs
     id="defs1" /><g
     style="fill:#ffffff;fill-opacity:0.297959"
     id="g2"
     transform="matrix(0,0.00417947,-0.00877329,0,-1.0527888,3.6793062)"
     inkscape:export-filename="g2.svg"
     inkscape:export-xdpi="96"
     inkscape:export-ydpi="96"><path
       d="m 532,-131 q -6,5 -12.5,8 -6.5,3 -14.5,3 -8,0 -16,-3.5 -8,-3.5 -14,-9.5 -41,-44 -60.5,-90 -19.5,-46 -19.5,-97 0,-37 11,-78 11,-41 38,-106 23,-57 32,-87.5 9,-30.5 9,-56.5 0,-34 -15,-63.5 -15,-29.5 -47,-59.5 -6,-6 -9.5,-14 -3.5,-8 -3.5,-16 0,-8 3,-14.5 3,-6.5 8,-12.5 6,-6 13.5,-9 7.5,-3 15.5,-3 8,0 15,3 7,3 13,8 44,41 65.5,86 21.5,45 21.5,95 0,35 -10.5,73.5 Q 544,-536 518,-474 q -25,60 -34,92 -9,32 -9,61 0,35 14.5,67.5 14.5,32.5 44.5,65.5 5,6 8,13 3,7 3,15 0,8 -3,15.5 -3,7.5 -10,13.5 z m 195,0 q -6,5 -12.5,8 -6.5,3 -14.5,3 -8,0 -16,-3.5 -8,-3.5 -14,-9.5 -41,-44 -60.5,-89.5 Q 590,-268 590,-319 q 0,-37 11,-79 11,-42 38,-106 23,-57 32,-87 9,-30 9,-56 0,-34 -15,-64.5 -15,-30.5 -47,-59.5 -6,-6 -9,-13.5 -3,-7.5 -3,-15.5 0,-8 2.5,-14.5 2.5,-6.5 7.5,-12.5 6,-6 14,-9.5 8,-3.5 16,-3.5 8,0 14.5,3 6.5,3 12.5,8 44,41 65.5,86 21.5,45 21.5,95 0,35 -10.5,73.5 Q 739,-536 713,-473 q -25,60 -34,92 -9,32 -9,60 0,35 15,68.5 15,33.5 45,65.5 5,6 7.5,13 2.5,7 2.5,14 0,8 -3,16 -3,8 -10,13 z m -390,0 q -6,5 -12.5,8 -6.5,3 -14.5,3 -8,0 -16,-3.5 -8,-3.5 -14,-9.5 -41,-44 -60.5,-89.5 Q 200,-268 200,-319 q 0,-37 11,-79 11,-42 38,-106 23,-57 32,-87 9,-30 9,-56 0,-34 -15,-64.5 -15,-30.5 -47,-59.5 -7,-6 -10,-13.5 -3,-7.5 -3,-15.5 0,-8 3,-15 3,-7 8,-13 6,-6 13.5,-9 7.5,-3 15.5,-3 8,0 15,3 7,3 13,8 44,41 65.5,85.5 21.5,44.5 21.5,95.5 0,35 -10,73.5 -10,38.5 -36,100.5 -25,60 -34,92 -9,32 -9,61 0,35 14.5,68.5 14.5,33.5 44.5,65.5 5,6 7.5,13 2.5,7 2.5,14 0,8 -3,16 -3,8 -10,13 z"
       id="path1-2"
       style="fill:#ffffff;fill-opacity:0.297959" /></g><g
     inkscape:label="Layer 1"
     inkscape:groupmode="layer"
     id="layer1"
     transform="translate(-101.37307,-143.05012)"><g
       style="fill:#ffffff;fill-opacity:1"
       id="g1"
       transform="matrix(0.00661458,0,0,0.00661458,101.56702,149.40011)"><path
         d="m 396,-396 q -32,-32 -58.5,-67 -26.5,-35 -48.5,-74 -5,14 -6.5,28.5 -1.5,14.5 -1.5,28.5 0,83 58,141 58,58 141,58 14,0 28.5,-2 14.5,-2 28.5,-6 -39,-22 -74,-48.5 -35,-26.5 -67,-58.5 z m 57,-56 q 51,51 114,87.5 63,36.5 135,56.5 -40,51 -98,79.5 -58,28.5 -123,28.5 -117,0 -198.5,-81.5 Q 201,-363 201,-480 q 0,-65 28.5,-123 28.5,-58 79.5,-98 20,72 56.5,135 36.5,63 87.5,114 z m 290,72 q -20,-5 -39.5,-11 -19.5,-6 -38.5,-14 8,-18 11.5,-36.5 3.5,-18.5 3.5,-38.5 0,-83 -58.5,-141.5 Q 563,-680 480,-680 q -20,0 -38.5,3.5 -18.5,3.5 -36.5,11.5 -8,-19 -13.5,-38 -5.5,-19 -10.5,-39 24,-9 49,-13.5 25,-4.5 51,-4.5 117,0 198.5,81.5 81.5,81.5 81.5,198.5 0,26 -4.5,51 -4.5,25 -13.5,49 z M 440,-840 v -120 h 80 v 120 z m 0,840 v -120 h 80 V 0 Z m 323,-706 -57,-57 85,-84 57,56 z m -594,593 -57,-56 85,-85 57,57 z m 671,-327 v -80 h 120 v 80 z m -840,0 v -80 h 120 v 80 z m 791,328 -85,-85 57,-57 84,85 z m -594,-594 -84,-85 56,-57 85,85 z m 199,310 z"
         id="path1"
         style="fill:#ffffff;fill-opacity:1" /></g></g></svg>
